<?xml version="1.0" encoding="utf-8"?>
<!-- Generator: Adobe Illustrator 21.1.0, SVG Export Plug-In . SVG Version: 6.00 Build 0)  -->
<svg version="1.1" id="Layer_1" xmlns="http://www.w3.org/2000/svg" xmlns:xlink="http://www.w3.org/1999/xlink" x="0px" y="0px"
	 width="120px" height="41px" viewBox="0 0 120 41" style="enable-background:new 0 0 120 41;" xml:space="preserve">
<style type="text/css">
	.st0{fill:#E30613;}
	.st1{fill:#1D1D1B;}
</style>
<title>Asset 1</title>
<g id="Layer_2">
	<g id="Layer_1-2">
		<path class="st0" d="M81,25.7c0,1.1-0.4,1.9-1.1,2.4C79.1,28.7,78,29,76.5,29c-1.3,0-2.6-0.1-3.9-0.5l0.5-2.1
			c2.3,0.7,3.7,0.8,4.3,0.3c0.2-0.2,0.3-0.4,0.3-0.7c0-0.3-0.2-0.5-0.5-0.7c-0.4-0.2-0.8-0.4-1.2-0.6c-0.5-0.2-1-0.4-1.4-0.6
			c-0.5-0.2-0.9-0.6-1.2-1c-0.3-0.5-0.5-1.1-0.5-1.6c0-1,0.4-1.8,1.1-2.4c0.8-0.6,1.8-0.8,3-0.8c1.2,0,2.5,0.2,3.7,0.5L80.4,21
			c-1.2-0.4-2.1-0.6-2.7-0.6c-1,0-1.6,0.3-1.6,0.9c0,0.5,0.6,0.9,1.8,1.3c0.5,0.2,0.9,0.4,1.4,0.6c0.5,0.2,0.9,0.6,1.2,1
			C80.8,24.6,81,25.1,81,25.7"/>
		<path class="st0" d="M82.1,28.8v-14h3v5.1h0c0.9-1,1.9-1.5,3-1.5c2.1,0,3.2,1.1,3.2,3.3v7.2h-3v-6.6c0-1-0.5-1.5-1.4-1.5
			c-0.6,0-1.2,0.2-1.9,0.7v7.4H82.1z"/>
		<path class="st0" d="M97.1,20.3c-1.2,0-1.9,1.1-1.9,3.3s0.6,3.3,1.9,3.3c1.2,0,1.9-1.1,1.9-3.3C99,21.4,98.4,20.3,97.1,20.3
			 M102.1,23.6c0,1.6-0.4,2.8-1.2,3.8c-0.8,1-2.1,1.5-3.7,1.5c-1.7,0-2.9-0.5-3.7-1.5c-0.8-1-1.2-2.3-1.2-3.8c0-1.6,0.4-2.9,1.2-3.9
			s2.1-1.5,3.7-1.5c1.7,0,2.9,0.5,3.7,1.5C101.7,20.8,102.1,22,102.1,23.6"/>
		<path class="st0" d="M109,25.8c0.3-0.5,0.5-1.3,0.5-2.2c0-0.9-0.2-1.7-0.5-2.2c-0.3-0.5-0.8-0.8-1.4-0.8c-0.6,0-1.2,0.2-1.6,0.6
			V26c0.5,0.4,1,0.6,1.6,0.6C108.2,26.6,108.7,26.3,109,25.8 M111.7,19.7c0.6,1,1,2.3,1,3.8s-0.3,2.9-1,3.9c-0.7,1-1.7,1.5-3.1,1.5
			c-1,0-1.9-0.4-2.5-1.1h0v4.7h-3v-14h2.6l0.3,1h0c0.7-0.8,1.6-1.2,2.7-1.2C110,18.2,111,18.7,111.7,19.7"/>
		<path class="st1" d="M51.1,23.6c0-1.2-0.2-2.1-0.7-2.8c-0.4-0.7-1.2-1.1-2.1-1.1c-0.9,0-1.8,0.3-2.4,0.9v6
			c0.7,0.6,1.5,0.9,2.4,0.9c0.9,0,1.6-0.4,2.1-1.1C50.9,25.7,51.1,24.8,51.1,23.6 M53,23.6c0,1.6-0.3,2.9-1,3.9S50.2,29,48.9,29
			c-1.1,0-2.1-0.4-2.9-1.2h0v4.7h-1.8v-14h1.6l0.2,1h0c0.8-0.8,2-1.3,3.1-1.2c1.3,0,2.2,0.5,2.9,1.5S53,22,53,23.6"/>
		<path class="st1" d="M55.3,26.1c0,0.4,0.2,0.8,0.5,1.1c0.4,0.3,0.9,0.4,1.3,0.4c1.1,0,2.2-0.5,2.9-1.3v-2.6
			c-1.5,0.1-2.7,0.4-3.5,0.8C55.7,24.9,55.3,25.4,55.3,26.1 M60,21.5c0-1.3-0.8-2-2.4-2c-0.8,0-1.9,0.2-3.2,0.7l-0.4-1.2
			c3.1-1.1,5.3-1.1,6.7,0c0.7,0.5,1,1.3,1,2.4v7.3h-1.6l-0.2-1.2c-0.9,0.9-2.2,1.4-3.5,1.4c-0.8,0-1.6-0.2-2.2-0.7
			c-0.6-0.5-0.9-1.2-0.9-1.9c0-1.2,0.5-2,1.6-2.6c1.1-0.6,2.7-1,4.9-1.2L60,21.5z"/>
		<polygon class="st1" points="62.3,18.4 64.3,18.4 66.2,23.8 67.3,27.1 67.3,27.1 68.3,23.9 70.3,18.4 72.2,18.4 67,32.5 
			65.3,32.5 66.8,28.4 66,28.4 		"/>
		<path class="st0" d="M32,30.9c0-0.9,0.7-1.6,1.6-1.6c0.9,0,1.6,0.7,1.6,1.6c0,0.9-0.7,1.6-1.6,1.6C32.7,32.5,32,31.8,32,30.9
			C32,30.9,32,30.9,32,30.9 M28.1,30.9c0-0.9,0.7-1.6,1.6-1.6c0.9,0,1.6,0.7,1.6,1.6c0,0.9-0.7,1.6-1.6,1.6c0,0,0,0,0,0
			C28.8,32.5,28.1,31.8,28.1,30.9C28.1,30.9,28.1,30.9,28.1,30.9 M24.2,30.9c0-0.9,0.7-1.6,1.6-1.6c0.9,0,1.6,0.7,1.6,1.6
			c0,0.9-0.7,1.6-1.6,1.6c0,0,0,0,0,0C25,32.5,24.3,31.8,24.2,30.9L24.2,30.9 M20.4,30.9c0-0.9,0.7-1.6,1.6-1.6
			c0.9,0,1.6,0.7,1.6,1.6c0,0.9-0.7,1.6-1.6,1.6c0,0,0,0,0,0C21.1,32.5,20.4,31.8,20.4,30.9 M16.5,30.9c0-0.9,0.7-1.6,1.6-1.6
			c0.9,0,1.6,0.7,1.6,1.6c0,0.9-0.7,1.6-1.6,1.6c0,0,0,0,0,0C17.2,32.5,16.5,31.8,16.5,30.9C16.5,30.9,16.5,30.9,16.5,30.9
			 M35.9,19.3c0-0.9,0.7-1.6,1.6-1.6c0.9,0,1.6,0.7,1.6,1.6c0,0.9-0.7,1.6-1.6,1.6C36.6,20.9,35.9,20.2,35.9,19.3
			C35.9,19.3,35.9,19.3,35.9,19.3 M32,27c0-0.9,0.7-1.6,1.6-1.6s1.6,0.7,1.6,1.6c0,0.9-0.7,1.6-1.6,1.6C32.7,28.6,32,27.9,32,27
			C32,27,32,27,32,27 M28.1,27c0-0.9,0.7-1.6,1.6-1.6c0.9,0,1.6,0.7,1.6,1.6c0,0.9-0.7,1.6-1.6,1.6c0,0,0,0,0,0
			C28.8,28.6,28.1,27.9,28.1,27C28.1,27,28.1,27,28.1,27 M24.2,27c0-0.9,0.7-1.6,1.6-1.6c0.9,0,1.6,0.7,1.6,1.6s-0.7,1.6-1.6,1.6
			c0,0,0,0,0,0C25,28.6,24.3,27.9,24.2,27C24.2,27,24.2,27,24.2,27 M20.4,27c0-0.9,0.7-1.6,1.6-1.6s1.6,0.7,1.6,1.6
			c0,0.9-0.7,1.6-1.6,1.6l0,0C21.1,28.6,20.4,27.9,20.4,27 M16.5,27c0-0.9,0.7-1.6,1.6-1.6s1.6,0.7,1.6,1.6c0,0.9-0.7,1.6-1.6,1.6
			C17.2,28.6,16.5,27.9,16.5,27C16.5,27,16.5,27,16.5,27 M32,23.2c0-0.9,0.7-1.6,1.6-1.6c0.9,0,1.6,0.7,1.6,1.6
			c0,0.9-0.7,1.6-1.6,1.6C32.7,24.8,32,24,32,23.2 M28.1,23.2c0-0.9,0.7-1.6,1.6-1.6c0.9,0,1.6,0.7,1.6,1.6c0,0.9-0.7,1.6-1.6,1.6
			c0,0,0,0,0,0C28.8,24.8,28.1,24,28.1,23.2 M24.2,23.2c0-0.9,0.7-1.6,1.6-1.6c0.9,0,1.6,0.7,1.6,1.6c0,0.9-0.7,1.6-1.6,1.6
			c0,0,0,0,0,0C25,24.8,24.3,24,24.2,23.2 M20.4,23.2c0-0.9,0.7-1.6,1.6-1.6c0.9,0,1.6,0.7,1.6,1.6c0,0.9-0.7,1.6-1.6,1.6
			c0,0,0,0,0,0C21.1,24.8,20.4,24,20.4,23.2 M16.5,23.2c0-0.9,0.7-1.6,1.6-1.6c0.9,0,1.6,0.7,1.6,1.6c0,0.9-0.7,1.6-1.6,1.6
			c0,0,0,0,0,0C17.2,24.8,16.5,24,16.5,23.2 M32,19.3c0-0.9,0.7-1.6,1.6-1.6s1.6,0.7,1.6,1.6c0,0.9-0.7,1.6-1.6,1.6
			C32.7,20.9,32,20.2,32,19.3C32,19.3,32,19.3,32,19.3 M28.1,19.3c0-0.9,0.7-1.6,1.6-1.6c0.9,0,1.6,0.7,1.6,1.6
			c0,0.9-0.7,1.6-1.6,1.6C28.8,20.9,28.1,20.2,28.1,19.3C28.1,19.3,28.1,19.3,28.1,19.3 M24.2,19.3c0-0.9,0.7-1.6,1.6-1.6
			c0.9,0,1.6,0.7,1.6,1.6c0,0.9-0.7,1.6-1.6,1.6C25,20.9,24.3,20.2,24.2,19.3C24.2,19.3,24.2,19.3,24.2,19.3 M20.4,19.3
			c0-0.9,0.7-1.6,1.6-1.6c0.9,0,1.6,0.7,1.6,1.6c0,0.9-0.7,1.6-1.6,1.6C21.1,20.9,20.4,20.2,20.4,19.3 M16.5,19.3
			c0-0.9,0.7-1.6,1.6-1.6c0.9,0,1.6,0.7,1.6,1.6c0,0.9-0.7,1.6-1.6,1.6C17.2,20.9,16.5,20.2,16.5,19.3
			C16.5,19.3,16.5,19.3,16.5,19.3 M12.6,19.3c0-0.9,0.7-1.6,1.6-1.6c0.9,0,1.6,0.7,1.6,1.6c0,0.9-0.7,1.6-1.6,1.6
			C13.3,20.9,12.6,20.2,12.6,19.3C12.6,19.3,12.6,19.3,12.6,19.3 M32,15.4c0-0.9,0.7-1.6,1.6-1.6c0.9,0,1.6,0.7,1.6,1.6
			c0,0.9-0.7,1.6-1.6,1.6C32.7,17,32,16.3,32,15.4 M28.1,15.4c0-0.9,0.7-1.6,1.6-1.6c0.9,0,1.6,0.7,1.6,1.6c0,0.9-0.7,1.6-1.6,1.6
			c0,0,0,0,0,0C28.9,17,28.1,16.3,28.1,15.4 M24.3,15.4c0-0.9,0.7-1.6,1.6-1.6c0.9,0,1.6,0.7,1.6,1.6c0,0.9-0.7,1.6-1.6,1.6
			c0,0,0,0,0,0C25,17,24.3,16.3,24.3,15.4 M20.4,15.4c0-0.9,0.7-1.6,1.6-1.6s1.6,0.7,1.6,1.6S22.9,17,22,17c0,0,0,0,0,0
			C21.1,17,20.4,16.3,20.4,15.4 M16.5,15.4c0-0.9,0.7-1.6,1.6-1.6c0.9,0,1.6,0.7,1.6,1.6c0,0.9-0.7,1.6-1.6,1.6c0,0,0,0,0,0
			C17.2,17,16.5,16.3,16.5,15.4 M28.1,11.5c0-0.9,0.7-1.6,1.6-1.6c0.9,0,1.6,0.7,1.6,1.6c0,0.9-0.7,1.6-1.6,1.6c0,0,0,0,0,0
			C28.9,13.1,28.1,12.4,28.1,11.5C28.1,11.5,28.1,11.5,28.1,11.5 M24.3,11.5c0-0.9,0.7-1.6,1.6-1.6c0.9,0,1.6,0.7,1.6,1.6
			s-0.7,1.6-1.6,1.6c0,0,0,0,0,0C25,13.1,24.3,12.4,24.3,11.5C24.3,11.5,24.3,11.5,24.3,11.5 M20.4,11.5c0-0.9,0.7-1.6,1.6-1.6
			c0.9,0,1.6,0.7,1.6,1.6c0,0.9-0.7,1.6-1.6,1.6h0C21.1,13.1,20.4,12.4,20.4,11.5 M24.3,7.6C24.2,6.8,25,6,25.9,6
			c0.9,0,1.6,0.7,1.6,1.6s-0.7,1.6-1.6,1.6c0,0,0,0,0,0C25,9.3,24.3,8.5,24.3,7.6C24.3,7.6,24.3,7.6,24.3,7.6"/>
	</g>
</g>
</svg>
