<?xml version="1.0" encoding="utf-8"?>
<!-- Generator: Adobe Illustrator 21.1.0, SVG Export Plug-In . SVG Version: 6.00 Build 0)  -->
<svg version="1.1" id="Layer_1" xmlns="http://www.w3.org/2000/svg" xmlns:xlink="http://www.w3.org/1999/xlink" x="0px" y="0px"
	 width="114px" height="128px" viewBox="0 0 114 128" style="enable-background:new 0 0 114 128;" xml:space="preserve">
<style type="text/css">
	.st0{fill:#1ED688;}
	.st1{fill:#1AB975;}
	.st2{fill:#35E298;}
</style>
<path class="st0" d="M12.9,63.1c0,14.4,7.1,27.1,18.1,34.8c1.9,1.4,2,4.2,0.2,5.6l-0.1,0c-1.2,1-2.9,1-4.2,0.1
	c-12.8-9-21.1-23.8-21.1-40.6c0-27.2,22.5-49.3,49.7-49.5v7.1C32.3,20.9,12.9,39.8,12.9,63.1z"/>
<path class="st1" d="M56.8,7.3l13,8.9c0.7,0.5,0.7,1.5,0,2l-13,8.9c-0.8,0.5-1.9,0-1.9-1V8.3C54.9,7.3,56,6.7,56.8,7.3z"/>
<path class="st0" d="M98.8,62.9c0-14.4-7.1-27.1-18.1-34.8c-1.9-1.4-2-4.2-0.2-5.6l0.1,0c1.2-1,2.9-1,4.2-0.1
	c12.8,9,21.1,23.8,21.1,40.6c0,27.2-22.5,49.3-49.6,49.5v-7.1C79.5,105.1,98.8,86.2,98.8,62.9z"/>
<path class="st1" d="M54.9,118.7l-13-8.9c-0.7-0.5-0.7-1.5,0-2l13-8.9c0.8-0.5,1.9,0,1.9,1v17.7C56.8,118.7,55.7,119.3,54.9,118.7z"
	/>
<path class="st0" d="M77.9,57.5L56.6,75.1l-5.4,4.4c-1.3,1-2.9,1.6-4.5,1.6c-0.3,0-0.5,0-0.8,0c-1.9-0.2-3.6-1.2-4.8-2.8l-8.3-11
	c-1.9-2.5-1.4-6,1.1-7.9c2.5-1.9,6-1.4,7.9,1.1l5.6,7.4l0,0l23.1-19.2c2.4-2,5.9-1.7,7.9,0.7C80.6,52,80.3,55.5,77.9,57.5z"/>
<path class="st2" d="M77.9,57.5L56.6,75.1c-3.5-1.7-6.5-4.1-9.1-7.1l23.1-19.2c2.4-2,5.9-1.7,7.9,0.7C80.6,52,80.3,55.5,77.9,57.5z"
	/>
</svg>
