<?xml version="1.0" encoding="utf-8"?>
<!-- Generator: Adobe Illustrator 21.1.0, SVG Export Plug-In . SVG Version: 6.00 Build 0)  -->
<svg version="1.1" id="Layer_1" xmlns="http://www.w3.org/2000/svg" xmlns:xlink="http://www.w3.org/1999/xlink" x="0px" y="0px"
	 width="113px" height="111px" viewBox="0 0 113 111" style="enable-background:new 0 0 113 111;" xml:space="preserve">
<style type="text/css">
	.st0{fill:#CECECE;}
	.st1{fill:#AFAFAF;}
	.st2{fill:#E2E2E2;}
	.st3{fill:#F8AF23;}
	.st4{fill:#F87023;}
	.st5{fill:#F8D323;}
	.st6{fill:#F46275;}
	.st7{fill:#F43075;}
	.st8{fill:#F48875;}
	.st9{fill:#3F3679;}
</style>
<path class="st0" d="M16.9,9h80.2c3.5,0,6.4,2.9,6.4,6.4v66.8c0,3.5-2.9,6.4-6.4,6.4H16.9c-3.5,0-6.4-2.9-6.4-6.4V15.3
	C10.5,11.8,13.4,9,16.9,9z"/>
<path class="st1" d="M14.7,82.2V15.3c0-3.5,2.9-6.4,6.4-6.4c0,0,0,0,0,0h-4.2c-3.5,0-6.4,2.9-6.4,6.4c0,0,0,0,0,0v66.8
	c0,3.5,2.9,6.4,6.4,6.4h4.2C17.6,88.6,14.7,85.7,14.7,82.2z"/>
<path class="st2" d="M99.3,82.2V15.3c0-3.5-2.9-6.4-6.4-6.4h4.2c3.5,0,6.4,2.9,6.4,6.4v66.8c0,3.5-2.9,6.4-6.4,6.4h-4.2
	C96.4,88.6,99.3,85.7,99.3,82.2z"/>
<path class="st3" d="M103.5,15.3c0-3.5-2.9-6.4-6.4-6.4H16.9c-3.5,0-6.4,2.9-6.4,6.4c0,0,0,0,0,0v11.1h92.9V15.3z"/>
<path class="st4" d="M21.1,9h-4.2c-3.5,0-6.4,2.9-6.4,6.4c0,0,0,0,0,0v11.1h4.2V15.3C14.7,11.8,17.6,9,21.1,9C21.1,9,21.1,9,21.1,9z
	"/>
<path class="st5" d="M92.9,9h4.2c3.5,0,6.4,2.9,6.4,6.4v11.1h-4.2V15.3C99.3,11.8,96.4,9,92.9,9z"/>
<circle class="st6" cx="21.9" cy="17.7" r="2.9"/>
<circle class="st6" cx="33.1" cy="17.7" r="2.9"/>
<circle class="st6" cx="44.4" cy="17.7" r="2.9"/>
<path class="st6" d="M55.9,15.7h36.9c1.2,0,2.2,1,2.2,2.2v0c0,1.2-1,2.2-2.2,2.2H55.9c-1.2,0-2.2-1-2.2-2.2v0
	C53.7,16.7,54.7,15.7,55.9,15.7z"/>
<circle class="st6" cx="57" cy="67.1" r="33.3"/>
<path class="st7" d="M27.8,67.1c0-17.6,13.7-32.2,31.3-33.3c-0.7,0-1.4-0.1-2.1-0.1C38.6,33.7,23.6,48.6,23.5,67
	s14.8,33.4,33.2,33.5c0.1,0,0.2,0,0.2,0c0.7,0,1.4,0,2.1-0.1C41.5,99.3,27.8,84.7,27.8,67.1z"/>
<path class="st8" d="M86.2,67.1c0-17.6-13.7-32.2-31.3-33.3c0.7,0,1.4-0.1,2.1-0.1C75.4,33.7,90.4,48.6,90.5,67
	c0.1,18.4-14.8,33.4-33.2,33.5c-0.1,0-0.2,0-0.2,0c-0.7,0-1.4,0-2.1-0.1C72.5,99.3,86.2,84.7,86.2,67.1z"/>
<g>
	<path class="st9" d="M15.1,104.4H7.6c-0.3,0-0.6,0.3-0.6,0.6s0.3,0.6,0.6,0.6h7.5c0.3,0,0.6-0.3,0.6-0.6S15.5,104.4,15.1,104.4
		L15.1,104.4z"/>
	<path class="st9" d="M106.4,104.4h-7.5c-0.3,0-0.6,0.3-0.6,0.6s0.3,0.6,0.6,0.6h7.5c0.3,0,0.6-0.3,0.6-0.6S106.7,104.4,106.4,104.4
		z"/>
	<path class="st9" d="M94.6,104.4H19.4c-0.3,0-0.6,0.3-0.6,0.6s0.3,0.6,0.6,0.6h75.3c0.3,0,0.6-0.3,0.6-0.6S95,104.4,94.6,104.4z"/>
	<path class="st9" d="M7.6,101.1h98.8c0.3,0,0.6-0.3,0.6-0.6c0-0.3-0.3-0.6-0.6-0.6H66.1c6.5-1.8,12.3-5.5,16.7-10.7h14.3
		c3.9,0,7-3.1,7-7V15.3c0-3.9-3.1-7-7-7H16.9c-3.9,0-7,3.1-7,7v66.8c0,3.9,3.1,7,7,7h14.3c4.4,5.1,10.2,8.8,16.7,10.7H7.6
		c-0.3,0-0.6,0.3-0.6,0.6C7,100.8,7.3,101.1,7.6,101.1z M11.2,15.3c0-3.2,2.6-5.7,5.8-5.8h80.2c3.2,0,5.7,2.6,5.8,5.8v10.5H11.2
		L11.2,15.3z M16.9,87.9c-3.2,0-5.7-2.6-5.8-5.8V27.1h91.7v55.1c0,3.2-2.6,5.7-5.8,5.8H83.8c11.5-14.8,8.8-36.1-6-47.7
		s-36.1-8.8-47.7,6c-9.5,12.3-9.5,29.4,0,41.7H16.9z M24.3,67.1c0-18.1,14.6-32.7,32.7-32.7s32.7,14.6,32.7,32.7S75.1,99.8,57,99.8
		l0,0C38.9,99.8,24.3,85.2,24.3,67.1L24.3,67.1z"/>
	<path class="st9" d="M21.9,14.2c-2,0-3.5,1.6-3.5,3.5c0,2,1.6,3.5,3.5,3.5s3.5-1.6,3.5-3.5c0,0,0,0,0,0
		C25.5,15.8,23.9,14.2,21.9,14.2z M21.9,20c-1.3,0-2.3-1-2.3-2.3s1-2.3,2.3-2.3s2.3,1,2.3,2.3C24.2,19,23.2,20,21.9,20z"/>
	<path class="st9" d="M33.1,14.2c-2,0-3.5,1.6-3.5,3.5c0,2,1.6,3.5,3.5,3.5s3.5-1.6,3.5-3.5c0,0,0,0,0,0
		C36.7,15.8,35.1,14.2,33.1,14.2z M33.1,20c-1.3,0-2.3-1-2.3-2.3s1-2.3,2.3-2.3c1.3,0,2.3,1,2.3,2.3C35.4,19,34.4,20,33.1,20z"/>
	<path class="st9" d="M44.4,14.2c-2,0-3.5,1.6-3.5,3.5c0,2,1.6,3.5,3.5,3.5c2,0,3.5-1.6,3.5-3.5c0,0,0,0,0,0
		C47.9,15.8,46.3,14.2,44.4,14.2z M44.4,20c-1.3,0-2.3-1-2.3-2.3s1-2.3,2.3-2.3c1.3,0,2.3,1,2.3,2.3C46.6,19,45.6,20,44.4,20z"/>
	<path class="st9" d="M92.8,15.1H55.9c-1.6,0-2.8,1.3-2.8,2.8s1.3,2.8,2.8,2.8h36.9c1.6,0,2.8-1.3,2.8-2.8
		C95.6,16.3,94.3,15.1,92.8,15.1z M92.8,19.5H55.9c-0.9,0-1.6-0.7-1.6-1.6c0-0.9,0.7-1.6,1.6-1.6h36.9c0.9,0,1.6,0.7,1.6,1.6
		C94.4,18.8,93.7,19.5,92.8,19.5z"/>
	<path class="st9" d="M45.9,67c0.9,0.9,2.4,0.9,3.2,0c0.9-0.9,0.9-2.3,0-3.2l-3.5-3.5l3.5-3.5c0.9-0.9,0.9-2.4,0-3.2
		c-0.9-0.9-2.3-0.9-3.2,0L42.4,57l-3.5-3.5c-0.9-0.9-2.4-0.9-3.2,0c-0.9,0.9-0.9,2.3,0,3.2l3.5,3.5l-3.5,3.5c-0.9,0.9-0.9,2.3,0,3.2
		c0.9,0.9,2.3,0.9,3.2,0c0,0,0,0,0,0l3.5-3.5L45.9,67z"/>
	<path class="st9" d="M74.9,60.2l3.5-3.5c0.9-0.9,0.9-2.3,0.1-3.2c-0.9-0.9-2.3-0.9-3.2-0.1c0,0,0,0-0.1,0.1L71.6,57l-3.5-3.5
		c-0.9-0.9-2.3-0.9-3.2-0.1c-0.9,0.9-0.9,2.3-0.1,3.2c0,0,0,0,0.1,0.1l3.5,3.5l-3.5,3.5c-0.9,0.9-0.9,2.3-0.1,3.2
		c0.9,0.9,2.3,0.9,3.2,0.1c0,0,0,0,0.1-0.1l3.5-3.5l3.5,3.5c0.9,0.9,2.4,0.9,3.2-0.1c0.9-0.9,0.9-2.3,0-3.2L74.9,60.2z"/>
	<path class="st9" d="M57,75.9c-4.7,0-9,2.6-11.2,6.7c-0.6,1.1-0.2,2.5,0.9,3.1c1.1,0.6,2.5,0.2,3.1-0.9c0,0,0-0.1,0-0.1
		c2.1-4,7.1-5.5,11.1-3.4c1.4,0.8,2.6,1.9,3.4,3.4c0.6,1.1,2,1.5,3.1,0.9c1.1-0.6,1.5-1.9,0.9-3C66,78.5,61.7,75.9,57,75.9z"/>
</g>
</svg>
