<?xml version="1.0" encoding="utf-8"?>
<!-- Generator: Adobe Illustrator 21.1.0, SVG Export Plug-In . SVG Version: 6.00 Build 0)  -->
<svg version="1.1" id="Capa_1" xmlns="http://www.w3.org/2000/svg" xmlns:xlink="http://www.w3.org/1999/xlink" x="0px" y="0px"
	 width="117px" height="124px" viewBox="0 0 117 124" style="enable-background:new 0 0 117 124;" xml:space="preserve">
<style type="text/css">
	.st0{fill:#B3DAFE;}
	.st1{fill:#CFCAE4;}
	.st2{fill:#B5ADD5;}
	.st3{fill:#FFFFFF;}
	.st4{fill:#F3F0FF;}
	.st5{fill:#FE646F;}
	.st6{fill:#9182B0;}
	.st7{fill:#FD4755;}
	.st8{fill:#FB2B3A;}
	.st9{fill:#4FC123;}
	.st10{fill:#47A920;}
	.st11{fill:#FED2A4;}
	.st12{fill:#FFBD86;}
	.st13{fill:#0182FC;}
	.st14{fill:#0172FB;}
</style>
<g>
	<path class="st0" d="M60,14.2c-27.6,0-50,22.4-50,50s22.4,50,50,50c5.4,0,10.6-0.9,15.5-2.5l0.2-0.2V87.2c0-0.4,0.3-0.7,0.7-0.7
		h23.7c0.4,0,0.7,0.3,0.7,0.7V93l0.2-0.2c5.7-8.1,9-18,9-28.6C110,36.6,87.6,14.2,60,14.2z"/>
	<g>
		<g>
			<g>
				<g>
					<path class="st1" d="M40.2,9.8h39.6c2.7,0,4.8,2.2,4.8,4.8v86.9c0,2.7-2.2,4.8-4.8,4.8H40.2c-2.7,0-4.8-2.2-4.8-4.8V14.6
						C35.4,11.9,37.6,9.8,40.2,9.8L40.2,9.8z"/>
					<g>
						<path class="st2" d="M43.9,101.5V91h-8.5v10.4c0,2.7,2.2,4.8,4.8,4.8h8.5C46,106.3,43.9,104.1,43.9,101.5z"/>
						<path class="st2" d="M43.9,20.5v-5.9c0-2.7,2.2-4.8,4.8-4.8h-8.5c-2.7,0-4.8,2.2-4.8,4.8v5.9L43.9,20.5L43.9,20.5z"/>
					</g>
					<path class="st3" d="M84.6,91H35.4V20.5h49.2L84.6,91z"/>
					<path class="st4" d="M35.4,20.5h8.5V91h-8.5V20.5z"/>
					<path class="st5" d="M74.1,55.5c0-1.9,1.4-3.4,3.2-3.5c0.1,0,0.2,0,0.2,0c0.1,0,0.3,0,0.4,0V37.1c0-0.6-0.5-1.1-1.1-1.1H43.2
						c-0.6,0-1.1,0.5-1.1,1.1v24.6l0.6,0.2h6.2c1.2-5,5.7-8.7,11.1-8.7s9.9,3.7,11.1,8.7h3V55.5z"/>
				</g>
				<g>
					<path class="st6" d="M63.8,98.7h-7.5c-0.8,0-1.5-0.7-1.5-1.5c0-0.8,0.7-1.5,1.5-1.5h7.5c0.8,0,1.5,0.7,1.5,1.5
						C65.3,98,64.6,98.7,63.8,98.7z"/>
				</g>
			</g>
		</g>
	</g>
	<g>
		<path class="st7" d="M48.4,37.1c0-0.6,0.5-1.1,1.1-1.1h-6.4c-0.6,0-1.1,0.5-1.1,1.1v24.6h6.4V37.1z"/>
		<g>
			<path class="st8" d="M48.6,64.7c0-1,0.1-2,0.4-2.9h-6.9v6.2c0,0.6,0.5,1.1,1.1,1.1h6.2C48.9,67.7,48.6,66.2,48.6,64.7L48.6,64.7z
				"/>
			<path class="st8" d="M74.1,69v-7.3h-3c0.2,0.9,0.4,1.9,0.4,2.9c0,1.5-0.3,3-0.9,4.3H74.1z"/>
		</g>
		<g>
			<path class="st8" d="M67,42.7c-0.8,0-1.5-0.7-1.5-1.5v-8.7c0-3-2.4-5.5-5.5-5.5s-5.5,2.4-5.5,5.5v8.7c0,0.8-0.7,1.5-1.5,1.5
				s-1.5-0.7-1.5-1.5v-8.7c0-4.7,3.8-8.5,8.5-8.5s8.5,3.8,8.5,8.5v8.7C68.5,42,67.8,42.7,67,42.7z"/>
		</g>
	</g>
	<g>
		<g>
			<circle class="st9" cx="60" cy="64.7" r="11.6"/>
		</g>
		<g>
			<path class="st10" d="M56.5,64.7c0-5,3.1-9.2,7.6-10.9C62.8,53.3,61.4,53,60,53c-6.4,0-11.6,5.2-11.6,11.6S53.6,76.3,60,76.3
				c1.4,0,2.8-0.3,4.1-0.7C59.7,73.9,56.5,69.6,56.5,64.7z"/>
		</g>
		<g>
			<path class="st3" d="M59.4,70.3c-0.4,0-0.8-0.2-1.1-0.4L53.4,65c-0.6-0.6-0.6-1.6,0-2.2c0.6-0.6,1.6-0.6,2.2,0l3.8,3.8l5.8-5.8
				c0.6-0.6,1.6-0.6,2.2,0c0.6,0.6,0.6,1.6,0,2.2l-6.9,6.9C60.2,70.2,59.8,70.3,59.4,70.3z"/>
		</g>
	</g>
	<g>
		<path class="st6" d="M66.6,17H53.4c-0.8,0-1.5-0.7-1.5-1.5c0-0.8,0.7-1.5,1.5-1.5h13.2c0.8,0,1.5,0.7,1.5,1.5
			C68.1,16.3,67.5,17,66.6,17z"/>
	</g>
	<g>
		<path class="st11" d="M99.5,64.1c-2.1-0.1-3.9,1.5-3.9,3.6c0-2-1.6-3.6-3.6-3.6c-2,0-3.6,1.6-3.6,3.6c0-2-1.6-3.6-3.6-3.6
			c-2,0-3.6,1.6-3.6,3.6V55.4c0-2.1-1.8-3.7-3.9-3.6c-1.9,0.1-3.4,1.8-3.4,3.7v24.3c0,2.5,2,4.5,4.5,4.5h0v2.1h19.7v-2.1h0.3
			c2.5,0,4.5-2,4.5-4.5v-12C102.9,65.9,101.4,64.2,99.5,64.1L99.5,64.1z"/>
		<path class="st12" d="M78.4,84.3v1.9h4.3v-3.1c0-0.5-0.4-0.9-0.8-1c-2.1-0.4-3.7-2.2-3.7-4.4V53.5c0-0.5,0.1-1.1,0.3-1.6
			c-0.5-0.1-1.1-0.2-1.6-0.1c-1.7,0.3-3,1.9-3,3.7v24.3C73.9,82.3,75.9,84.3,78.4,84.3L78.4,84.3L78.4,84.3z"/>
		<path class="st13" d="M101,92.9v-5.7c0-0.5-0.4-0.9-0.9-0.9H76.4c-0.5,0-0.9,0.4-0.9,0.9v24.6C85.9,108.4,94.9,101.7,101,92.9z"/>
		<path class="st14" d="M75.5,87.2v24.6c3-1,5.9-2.2,8.6-3.7V87.2c0-0.5,0.4-0.9,0.9-0.9h-8.6C75.9,86.2,75.5,86.7,75.5,87.2
			L75.5,87.2z"/>
	</g>
	<circle class="st3" cx="48.3" cy="15.5" r="1.5"/>
	<g>
		<circle class="st1" cx="55.5" cy="83.9" r="1.5"/>
		<circle class="st9" cx="60" cy="83.9" r="1.5"/>
		<circle class="st1" cx="64.5" cy="83.9" r="1.5"/>
	</g>
</g>
</svg>
