<?xml version="1.0" encoding="utf-8"?>
<!-- Generator: Adobe Illustrator 21.1.0, SVG Export Plug-In . SVG Version: 6.00 Build 0)  -->
<svg version="1.1" id="Camada_1" xmlns="http://www.w3.org/2000/svg" xmlns:xlink="http://www.w3.org/1999/xlink" x="0px" y="0px"
	 width="61px" height="37px" viewBox="0 0 61 37" style="enable-background:new 0 0 61 37;" xml:space="preserve">
<style type="text/css">
	.st0{fill:#FF0000;}
</style>
<title>mbway</title>
<path class="st0" d="M6.6,26.8l-0.1,0.7c0,0.3,0.2,0.6,0.5,0.6c0,0,0,0,0,0h21.3c0.3,0,0.5-0.2,0.6-0.5c0,0,0,0,0-0.1l-0.1-0.7
	c-0.1-0.5,0.3-1,0.8-1c0.5-0.1,1,0.3,1,0.8l0,0l0.1,0.6c0.2,1.4-0.6,2.7-2.1,2.7H6.8c-1.4,0-2.2-1.2-2.1-2.7l0.1-0.6
	c0.1-0.5,0.5-0.9,1-0.8c0,0,0,0,0,0l0,0C6.3,25.8,6.7,26.3,6.6,26.8"/>
<path d="M26.2,21.9c1,0.1,1.8-0.7,1.8-1.6c0,0,0-0.1,0-0.1c0-1-0.9-1.7-2-1.7H24c-0.5,0-0.9-0.4-0.9-0.9s0.4-0.9,0.9-0.9h1.4
	c0.9,0,1.7-0.6,1.7-1.5c0-0.9-0.8-1.7-1.8-1.7H22v8.3L26.2,21.9 M28.8,15.2c0,0.7-0.3,1.4-0.8,2l-0.1,0.1l0.1,0
	c1,0.6,1.7,1.7,1.7,2.8c0,1.9-1.5,3.5-3.4,3.5h-5.2c-0.5,0-0.9-0.4-0.9-0.9c0,0,0,0,0,0l0,0v-10c0-0.5,0.4-0.9,0.9-0.9c0,0,0,0,0,0
	l0,0h4.2c1.8-0.1,3.4,1.4,3.4,3.2C28.8,15.2,28.8,15.2,28.8,15.2"/>
<path d="M12.3,20.3L12.3,20.3L12.3,20.3c0.3-0.7,0.6-1.4,0.9-2.2c0.3-0.8,0.6-1.6,0.9-2.4c0.3-0.8,0.6-1.5,0.9-2.1
	c0.2-0.4,0.4-0.9,0.7-1.3c0.3-0.3,0.7-0.5,1.1-0.5H17c0.2,0,0.5,0.1,0.7,0.2c0.1,0.1,0.2,0.3,0.3,0.5l1.3,10.3
	c0,0.2-0.1,0.5-0.2,0.6c-0.2,0.2-0.4,0.2-0.6,0.2c-0.2,0-0.5-0.1-0.7-0.2c-0.2-0.1-0.3-0.3-0.3-0.5c0-0.3-0.1-0.7-0.1-1.1
	S17,19.6,17,19.2c-0.1-0.5-0.4-3.4-0.6-4.4v-0.1L16,15.5c-0.1,0.3-0.3,0.7-0.5,1.1c-0.2,0.4-0.3,0.9-0.5,1.4c-0.2,0.5-1,2.8-1,2.8
	c-0.1,0.2-0.2,0.6-0.3,1s-0.3,0.7-0.3,0.8c-0.3,0.6-1,0.8-1.6,0.5c-0.2-0.1-0.4-0.3-0.5-0.5c0-0.1-0.2-0.4-0.3-0.8
	c-0.1-0.4-0.3-0.8-0.3-1c0,0-0.8-2.4-1-2.8c-0.2-0.5-0.3-0.9-0.5-1.4c-0.2-0.4-0.3-0.8-0.5-1.1l-0.4-0.9v0.1c-0.1,1-0.5,4-0.6,4.4
	c-0.1,0.5-0.3,2.2-0.3,2.6c0,0.4-0.1,0.8-0.1,1.1c0,0.2-0.1,0.4-0.3,0.5c-0.2,0.1-0.4,0.2-0.7,0.2c-0.2,0-0.5-0.1-0.6-0.2
	c-0.2-0.2-0.2-0.4-0.2-0.6l1.3-10.3c0-0.2,0.1-0.3,0.3-0.5c0.2-0.2,0.4-0.2,0.7-0.2h0.2c0.4,0,0.8,0.2,1.1,0.5
	c0.3,0.4,0.5,0.8,0.7,1.3c0.3,0.6,0.6,1.3,0.9,2.1c0.3,0.8,0.6,1.6,0.9,2.4C11.7,18.9,12,19.6,12.3,20.3"/>
<path class="st0" d="M9.7,5.6h16.1c1.5,0,2.3,1.1,2.4,2.6l0.1,0.5c0.1,0.5-0.3,1-0.8,1c0,0,0,0,0,0c-0.5,0-1-0.3-1-0.8l0,0l-0.1-0.5
	c-0.1-0.6-0.3-1-0.9-1H9.9c-0.6,0-0.8,0.4-0.9,1L9,9c0,0.5-0.5,0.9-1,0.8l0,0c-0.5-0.1-0.9-0.5-0.8-1c0,0,0,0,0,0l0.1-0.5
	C7.4,6.8,8.2,5.6,9.7,5.6"/>
<path d="M38.7,16.5c-0.1,0.4-0.2,0.9-0.3,1.4c-0.1,0.5-0.2,1-0.3,1.4c-0.1,0.4-0.2,0.8-0.3,1.2c-0.1,0.2-0.2,0.5-0.3,0.7
	c-0.1,0.2-0.4,0.4-0.7,0.3c-0.1,0-0.2,0-0.3-0.1c-0.2,0-0.3-0.2-0.3-0.3c-0.1-0.2-0.2-0.5-0.3-0.7c-0.1-0.3-0.2-0.8-0.3-1.2
	s-0.2-1-0.3-1.5s-0.2-1-0.3-1.5c-0.1-0.5-0.2-0.8-0.2-1.2s-0.1-0.5-0.1-0.6c0,0,0-0.1,0-0.1v0c0-0.1,0.1-0.2,0.2-0.3
	c0.1-0.1,0.2-0.1,0.4-0.1c0.1,0,0.2,0,0.3,0.1c0.1,0.1,0.2,0.2,0.2,0.3c0,0,0,0.1,0.1,0.3s0.1,0.5,0.2,0.8s0.1,0.7,0.2,1.1
	c0.1,0.4,0.2,0.8,0.3,1.2c0.1,0.4,0.2,0.8,0.3,1.2s0.2,0.7,0.3,1c0.1-0.3,0.2-0.6,0.3-0.9c0.1-0.3,0.2-0.7,0.3-1s0.2-0.7,0.3-1.1
	c0.1-0.4,0.2-0.7,0.2-1c0.1-0.3,0.1-0.6,0.2-0.8s0.1-0.4,0.1-0.5c0-0.1,0.1-0.3,0.2-0.3c0.1-0.1,0.2-0.1,0.4-0.2
	c0.2,0,0.3,0,0.4,0.1c0.1,0.1,0.2,0.2,0.2,0.3c0.1,0.4,0.2,0.8,0.3,1.3c0.1,0.5,0.2,0.9,0.3,1.4s0.2,1,0.3,1.4
	c0.1,0.5,0.2,0.9,0.3,1.2c0.1-0.3,0.2-0.6,0.3-1c0.1-0.4,0.2-0.8,0.3-1.2c0.1-0.4,0.2-0.8,0.3-1.2l0.2-1.1c0.1-0.3,0.1-0.6,0.2-0.8
	c0-0.2,0.1-0.3,0.1-0.3c0-0.1,0.1-0.2,0.2-0.3c0.1-0.1,0.2-0.1,0.3-0.1c0.1,0,0.3,0,0.4,0.1c0.1,0.1,0.2,0.2,0.2,0.3v0
	c0,0,0,0.1,0,0.1c0,0.1,0,0.3-0.1,0.6c-0.1,0.3-0.1,0.7-0.2,1.1c-0.1,0.4-0.2,0.9-0.3,1.5c-0.1,0.5-0.2,1-0.3,1.5
	c-0.1,0.5-0.2,0.9-0.3,1.2c-0.1,0.2-0.2,0.5-0.3,0.7c-0.1,0.1-0.2,0.3-0.3,0.3c-0.1,0-0.2,0.1-0.3,0.1c0,0-0.1,0-0.1,0
	c-0.1,0-0.1,0-0.2,0c-0.1,0-0.2-0.1-0.2-0.1c-0.1-0.1-0.1-0.1-0.2-0.2c-0.1-0.2-0.2-0.5-0.3-0.7c-0.1-0.3-0.2-0.7-0.3-1.2
	c-0.1-0.4-0.2-0.9-0.3-1.4C38.9,17.3,38.8,16.9,38.7,16.5"/>
<path d="M44.8,19.3c-0.1,0.4-0.2,0.7-0.3,1c-0.1,0.3-0.2,0.6-0.3,0.8c0,0.3-0.3,0.5-0.6,0.5s-0.5-0.3-0.5-0.6c0-0.1,0-0.1,0-0.2
	l0.1-0.5c0.1-0.3,0.2-0.6,0.3-1s0.3-0.9,0.4-1.3c0.2-0.5,0.3-1,0.5-1.4c0.2-0.5,0.3-0.9,0.5-1.3c0.1-0.3,0.3-0.7,0.5-1
	c0.1-0.1,0.1-0.2,0.3-0.3c0.1-0.1,0.3-0.1,0.4-0.1c0.2,0,0.3,0,0.4,0.1c0.1,0.1,0.2,0.2,0.3,0.3c0.1,0.2,0.2,0.6,0.4,0.9
	c0.1,0.4,0.3,0.8,0.5,1.3c0.2,0.5,0.3,0.9,0.5,1.4c0.2,0.5,0.3,0.9,0.5,1.3l0.3,1c0.1,0.3,0.2,0.5,0.2,0.6c0,0,0,0.1,0,0.2
	c0,0.1,0,0.3-0.1,0.3c-0.1,0.1-0.3,0.1-0.4,0.1c-0.1,0-0.2,0-0.3-0.1c-0.1-0.1-0.1-0.2-0.2-0.3c-0.1-0.2-0.2-0.5-0.3-0.8
	c-0.1-0.3-0.2-0.7-0.3-1L44.8,19.3 M47.4,18.3c-0.2-0.5-0.3-1-0.5-1.4s-0.3-0.8-0.4-1.2c0-0.1-0.1-0.2-0.1-0.3
	c0-0.1-0.1-0.2-0.1-0.2c0,0.1-0.1,0.1-0.1,0.2c0,0.1-0.1,0.2-0.1,0.3c-0.2,0.4-0.3,0.8-0.5,1.2c-0.1,0.4-0.3,0.9-0.5,1.4L47.4,18.3z
	"/>
<path d="M51.4,18.5c0,0-0.1-0.1-0.1-0.1c0,0-0.1-0.1-0.1-0.2c-0.1-0.2-0.2-0.3-0.3-0.6c-0.1-0.2-0.3-0.5-0.4-0.7
	c-0.1-0.2-0.3-0.5-0.4-0.8c-0.1-0.3-0.2-0.5-0.3-0.7c-0.1-0.2-0.2-0.4-0.3-0.6c-0.1-0.1-0.1-0.2-0.1-0.3c0,0,0-0.1,0-0.1
	c0,0,0,0,0-0.1c0-0.1,0.1-0.3,0.1-0.3c0.1-0.1,0.3-0.2,0.4-0.1c0.1,0,0.3,0,0.3,0.1c0.1,0.1,0.1,0.2,0.1,0.2l0.1,0.3l0.2,0.5
	c0.1,0.2,0.2,0.4,0.3,0.6c0.1,0.2,0.2,0.5,0.3,0.7l0.3,0.7c0.1,0.2,0.2,0.3,0.3,0.5c0.2-0.3,0.3-0.6,0.5-0.9c0.2-0.3,0.3-0.7,0.5-1
	c0.2-0.3,0.3-0.6,0.4-0.9l0.2-0.5c0-0.1,0.1-0.2,0.1-0.2c0.1-0.1,0.2-0.1,0.3-0.1c0.1,0,0.3,0,0.4,0.1c0.1,0.1,0.1,0.2,0.1,0.3
	c0,0,0,0.1,0,0.1c0,0,0,0,0,0.1l-0.1,0.3c-0.1,0.2-0.1,0.3-0.3,0.6c-0.1,0.2-0.2,0.5-0.3,0.7c-0.1,0.2-0.3,0.5-0.4,0.8
	c-0.1,0.3-0.3,0.5-0.4,0.7c-0.1,0.2-0.3,0.4-0.3,0.6c-0.1,0.1-0.1,0.2-0.2,0.3v2.4c0,0.1,0,0.3-0.1,0.4c-0.2,0.2-0.5,0.2-0.7,0
	c-0.1-0.1-0.2-0.3-0.2-0.4L51.4,18.5"/>
</svg>
