<?xml version="1.0" encoding="utf-8"?>
<!-- Generator: Adobe Illustrator 21.1.0, SVG Export Plug-In . SVG Version: 6.00 Build 0)  -->
<svg version="1.1" id="Capa_1" xmlns="http://www.w3.org/2000/svg" xmlns:xlink="http://www.w3.org/1999/xlink" x="0px" y="0px"
	 width="113px" height="98px" viewBox="0 0 113 98" style="enable-background:new 0 0 113 98;" xml:space="preserve">
<style type="text/css">
	.st0{fill:#FD4755;}
	.st1{fill:#FB2B3A;}
	.st2{fill:#E8EDF2;}
	.st3{fill:#D9E7EC;}
	.st4{fill:#FE646F;}
	.st5{fill:#FAC600;}
	.st6{fill:#00C27A;}
	.st7{fill:#7A8C98;}
	.st8{fill:#8D9CA8;}
	.st9{fill:#99E6FC;}
	.st10{fill:#62DBFB;}
	.st11{fill:#B6C4CF;}
	.st12{fill:#596C76;}
	.st13{fill:#465A61;}
	.st14{fill:#08A9F1;}
	.st15{fill:#08B865;}
	.st16{fill:#9FACBA;}
</style>
<g>
	<g>
		<g>
			<path class="st0" d="M104,6.2H8c-1.1,0-2,0.9-2,2v9.6l0.5,0.2h99.2l0.3-0.2V8.3C106,7.1,105.1,6.2,104,6.2L104,6.2z"/>
		</g>
		<path class="st1" d="M18.2,8.3c0-1.1,0.9-2,2-2H8c-1.1,0-2,0.9-2,2v9.6h12.2V8.3z"/>
		<g>
			<g>
				<path class="st2" d="M104,91.8H8c-1.1,0-2-0.9-2-2V17.9h100v71.8C106,90.9,105.1,91.8,104,91.8z"/>
			</g>
		</g>
		<g>
			<path class="st3" d="M18.2,89.7V17.9H6v71.8c0,1.1,0.9,2,2,2h12.2C19.1,91.8,18.2,90.9,18.2,89.7z"/>
		</g>
		<g>
			<g>
				<circle class="st4" cx="12" cy="12" r="1.5"/>
			</g>
			<g>
				<circle class="st5" cx="17.1" cy="12" r="1.5"/>
			</g>
			<g>
				<circle class="st6" cx="22.1" cy="12" r="1.5"/>
			</g>
		</g>
		<g>
			<g>
				<g>
					<path class="st6" d="M26.8,31.4H14.8c-0.8,0-1.5-0.7-1.5-1.5s0.7-1.5,1.5-1.5h12.1c0.8,0,1.5,0.7,1.5,1.5S27.6,31.4,26.8,31.4z
						"/>
				</g>
			</g>
			<g>
				<g>
					<path class="st6" d="M26.8,36.4H14.8c-0.8,0-1.5-0.7-1.5-1.5s0.7-1.5,1.5-1.5h12.1c0.8,0,1.5,0.7,1.5,1.5S27.6,36.4,26.8,36.4z
						"/>
				</g>
			</g>
			<g>
				<g>
					<path class="st7" d="M26.8,41.4H14.8c-0.8,0-1.5-0.7-1.5-1.5c0-0.8,0.7-1.5,1.5-1.5h12.1c0.8,0,1.5,0.7,1.5,1.5
						C28.3,40.8,27.6,41.4,26.8,41.4z"/>
				</g>
			</g>
			<g>
				<g>
					<path class="st6" d="M26.8,51.5H14.8c-0.8,0-1.5-0.7-1.5-1.5c0-0.8,0.7-1.5,1.5-1.5h12.1c0.8,0,1.5,0.7,1.5,1.5
						C28.3,50.8,27.6,51.5,26.8,51.5z"/>
				</g>
			</g>
			<g>
				<g>
					<path class="st6" d="M26.8,56.5H14.8c-0.8,0-1.5-0.7-1.5-1.5s0.7-1.5,1.5-1.5h12.1c0.8,0,1.5,0.7,1.5,1.5S27.6,56.5,26.8,56.5z
						"/>
				</g>
			</g>
			<g>
				<g>
					<path class="st8" d="M26.8,61.5H14.8c-0.8,0-1.5-0.7-1.5-1.5s0.7-1.5,1.5-1.5h12.1c0.8,0,1.5,0.7,1.5,1.5S27.6,61.5,26.8,61.5z
						"/>
				</g>
			</g>
			<g>
				<g>
					<path class="st8" d="M26.8,66.6H14.8c-0.8,0-1.5-0.7-1.5-1.5s0.7-1.5,1.5-1.5h12.1c0.8,0,1.5,0.7,1.5,1.5S27.6,66.6,26.8,66.6z
						"/>
				</g>
			</g>
		</g>
	</g>
	<g>
		<path class="st9" d="M92.6,85.5H19.4c-2.6,0-4.6-2.1-4.6-4.6c0-2.6,2.1-4.6,4.6-4.6h73.2c2.6,0,4.6,2.1,4.6,4.6
			C97.2,83.4,95.2,85.5,92.6,85.5z"/>
	</g>
	<g>
		<path class="st10" d="M28,80.9c0-2.6,2.1-4.6,4.6-4.6H19.4c-2.6,0-4.6,2.1-4.6,4.6c0,2.6,2.1,4.6,4.6,4.6h13.3
			C30.1,85.5,28,83.4,28,80.9z"/>
	</g>
	<g>
		<g>
			<path class="st11" d="M92.6,87H19.4c-3.4,0-6.1-2.7-6.1-6.1c0-3.4,2.7-6.1,6.1-6.1h73.2c3.4,0,6.1,2.7,6.1,6.1
				C98.7,84.3,96,87,92.6,87z M19.4,77.7c-1.7,0-3.2,1.4-3.2,3.2s1.4,3.2,3.2,3.2h73.2c1.7,0,3.2-1.4,3.2-3.2c0-1.7-1.4-3.2-3.2-3.2
				H19.4z"/>
		</g>
	</g>
	<g>
		<g>
			<path class="st8" d="M72,49.2v-4.1c0-0.5-0.4-0.9-0.9-0.9h-3c-0.4,0-0.7-0.2-0.8-0.6c-0.2-0.6-0.4-1.2-0.7-1.7
				c-0.2-0.3-0.1-0.7,0.2-1l2.1-2.1c0.3-0.3,0.3-0.9,0-1.2L66,34.6c-0.3-0.3-0.9-0.3-1.2,0l-2.1,2.1c-0.3,0.3-0.7,0.3-1,0.2
				c-0.5-0.3-1.1-0.5-1.7-0.7c-0.4-0.1-0.6-0.4-0.6-0.8v-3c0-0.5-0.4-0.9-0.9-0.9h-4.1c-0.5,0-0.9,0.4-0.9,0.9v3
				c0,0.4-0.2,0.7-0.6,0.8c-0.6,0.2-1.2,0.4-1.7,0.7c-0.3,0.2-0.7,0.1-1-0.2L48,34.6c-0.3-0.3-0.9-0.3-1.2,0l-2.9,2.9
				c-0.3,0.3-0.3,0.9,0,1.2l2.1,2.1c0.3,0.3,0.3,0.7,0.2,1c-0.3,0.5-0.5,1.1-0.7,1.7c-0.1,0.4-0.4,0.6-0.8,0.6h-3
				c-0.5,0-0.9,0.4-0.9,0.9v4.1c0,0.5,0.4,0.9,0.9,0.9h3c0.4,0,0.7,0.2,0.8,0.6c0.2,0.6,0.4,1.2,0.7,1.7c0.2,0.3,0.1,0.7-0.2,1
				l-2.1,2.1c-0.3,0.3-0.3,0.9,0,1.2l2.9,2.9c0.3,0.3,0.9,0.3,1.2,0l2.1-2.1c0.3-0.3,0.7-0.3,1-0.2c0.5,0.3,1.1,0.5,1.7,0.7
				c0.4,0.1,0.6,0.4,0.6,0.8v3c0,0.5,0.4,0.9,0.9,0.9h4.1c0.5,0,0.9-0.4,0.9-0.9v-3c0-0.4,0.2-0.7,0.6-0.8c0.6-0.2,1.2-0.4,1.7-0.7
				c0.3-0.2,0.7-0.1,1,0.2l2.1,2.1c0.3,0.3,0.9,0.3,1.2,0l2.9-2.9c0.3-0.3,0.3-0.9,0-1.2l-2.1-2.1c-0.3-0.3-0.3-0.7-0.2-1
				c0.3-0.5,0.5-1.1,0.7-1.7c0.1-0.4,0.4-0.6,0.8-0.6h3C71.6,50,72,49.7,72,49.2z"/>
		</g>
		<path class="st7" d="M52.4,54.3c-2.5-1.4-4.2-4.1-4.2-7.2c0-3.1,1.7-5.7,4.2-7.2c1.5-2.9,4-5.3,7-6.7v-0.9c0-0.5-0.4-0.9-0.9-0.9
			h-4.1c-0.5,0-0.9,0.4-0.9,0.9v3c0,0.4-0.2,0.7-0.6,0.8c-0.6,0.2-1.2,0.4-1.7,0.7c-0.3,0.2-0.7,0.1-1-0.2L48,34.6
			c-0.3-0.3-0.9-0.3-1.2,0l-2.9,2.9c-0.3,0.3-0.3,0.9,0,1.2l2.1,2.1c0.3,0.3,0.3,0.7,0.2,1c-0.3,0.5-0.5,1.1-0.7,1.7
			c-0.1,0.4-0.4,0.6-0.8,0.6h-3c-0.5,0-0.9,0.4-0.9,0.9v4.1c0,0.5,0.4,0.9,0.9,0.9h3c0.4,0,0.7,0.2,0.8,0.6c0.2,0.6,0.4,1.2,0.7,1.7
			c0.2,0.3,0.1,0.7-0.2,1l-2.1,2.1c-0.3,0.3-0.3,0.9,0,1.2l2.9,2.9c0.3,0.3,0.9,0.3,1.2,0l2.1-2.1c0.3-0.3,0.7-0.3,1-0.2
			c0.5,0.3,1.1,0.5,1.7,0.7c0.4,0.1,0.6,0.4,0.6,0.8v3c0,0.5,0.4,0.9,0.9,0.9h4.1c0.5,0,0.9-0.4,0.9-0.9v-0.9
			C56.4,59.5,53.9,57.2,52.4,54.3L52.4,54.3z"/>
		<g>
			<circle class="st12" cx="56.4" cy="47.1" r="6.8"/>
		</g>
		<path class="st13" d="M55.5,49.2c-0.8-0.3-1.4-1.2-1.4-2.1s0.6-1.8,1.4-2.1c0.6-1.8,1.9-3.3,3.7-4.1c-0.8-0.4-1.8-0.6-2.8-0.6
			c-3.7,0-6.8,3-6.8,6.8s3,6.8,6.8,6.8c1,0,1.9-0.2,2.8-0.6C57.5,52.5,56.1,51,55.5,49.2z"/>
		<g>
			<path class="st11" d="M56.4,55.4c-4.5,0-8.2-3.7-8.2-8.2s3.7-8.2,8.2-8.2s8.2,3.7,8.2,8.2S61,55.4,56.4,55.4L56.4,55.4z
				 M56.4,41.8c-2.9,0-5.3,2.4-5.3,5.3c0,2.9,2.4,5.3,5.3,5.3c2.9,0,5.3-2.4,5.3-5.3C61.7,44.2,59.3,41.8,56.4,41.8z"/>
		</g>
		<g>
			<circle class="st2" cx="56.4" cy="47.1" r="2.3"/>
		</g>
	</g>
	<g>
		<path class="st14" d="M73.7,82.4H19.6c-0.8,0-1.5-0.7-1.5-1.5s0.7-1.5,1.5-1.5h54.1c0.8,0,1.5,0.7,1.5,1.5S74.5,82.4,73.7,82.4z"
			/>
	</g>
	<g>
		<g>
			<g>
				<path class="st11" d="M75.2,57.2c-0.8,1.4-1.7,2.8-2.8,4c-3.4,3.9-8,6.4-13.1,7.1c-0.8,0.1-1.4,0.8-1.3,1.7
					c0.1,0.7,0.7,1.3,1.4,1.3c0.1,0,0.1,0,0.2,0c5.8-0.8,11-3.6,14.9-8c1-1.1,1.8-2.3,2.6-3.5L75.2,57.2z"/>
				<path class="st11" d="M59.3,26c5.1,0.7,9.7,3.2,13.1,7.1c2.6,2.9,4.3,6.4,5,10.2c0,0,0.1,0,0.1,0h2.8c-0.7-4.5-2.7-8.7-5.7-12.1
					c-3.9-4.4-9.1-7.2-14.9-8c-0.8-0.1-1.5,0.5-1.7,1.3C58,25.2,58.5,25.9,59.3,26z"/>
			</g>
			<g>
				<path class="st11" d="M53.3,71.2c-0.1,0-0.1,0-0.2,0c-5.8-0.8-11-3.6-14.9-8c-3.9-4.4-6-10.1-6-16c0-5.9,2.1-11.6,6-16
					c3.9-4.4,9.1-7.2,14.9-8c0.8-0.1,1.5,0.5,1.7,1.3c0.1,0.8-0.5,1.5-1.3,1.7c-5.1,0.7-9.7,3.2-13.1,7.1c-3.4,3.9-5.3,8.9-5.3,14.1
					c0,5.2,1.9,10.2,5.3,14.1c3.4,3.9,8,6.4,13.1,7.1c0.8,0.1,1.4,0.8,1.3,1.7C54.6,70.6,54,71.2,53.3,71.2L53.3,71.2z"/>
			</g>
		</g>
	</g>
	<g>
		<path class="st6" d="M73.4,55.3l6.8,8.3c0.2,0.3,0.6,0.3,0.9,0l6.8-8.3c0.3-0.4,0-0.9-0.4-0.9h-2.6c-0.3,0-0.6-0.2-0.6-0.6V43.6
			c0-0.3-0.2-0.6-0.6-0.6h-6.2c-0.3,0-0.6,0.2-0.6,0.6v10.3c0,0.3-0.2,0.6-0.6,0.6h-2.6C73.4,54.4,73.2,55,73.4,55.3L73.4,55.3z"/>
	</g>
	<g>
		<g>
			<path class="st15" d="M75.2,57.5h4.3c0.3,0,0.6-0.2,0.6-0.6V46.7c0-0.3,0.2-0.6,0.6-0.6h3.7v-2.5c0-0.3-0.2-0.6-0.6-0.6h-6.2
				c-0.3,0-0.6,0.2-0.6,0.6v10.3c0,0.3-0.2,0.6-0.6,0.6h-2.6c-0.5,0-0.7,0.5-0.4,0.9L75.2,57.5z"/>
		</g>
	</g>
	<g>
		<g>
			<path class="st11" d="M92.4,24.6H87c-0.2,0-0.5,0.1-0.7,0.3l-3.9,3.9c-0.2,0.2-0.3,0.4-0.3,0.7v5.5c0,0.2,0.1,0.5,0.3,0.7
				l3.9,3.9c0.2,0.2,0.4,0.3,0.7,0.3h5.5c0.2,0,0.5-0.1,0.7-0.3l3.9-3.9c0.2-0.2,0.3-0.4,0.3-0.7v-5.5c0-0.2-0.1-0.5-0.3-0.7
				l-3.9-3.9C92.9,24.7,92.7,24.6,92.4,24.6z"/>
		</g>
		<path class="st16" d="M88.5,35.5c-0.2-0.2-0.3-0.4-0.3-0.7v0c-1-0.5-1.6-1.6-1.6-2.7s0.7-2.2,1.6-2.7v0c0-0.2,0.1-0.5,0.3-0.7
			l3.9-3.9c0.1-0.1,0.2-0.2,0.4-0.2c-0.1,0-0.2,0-0.3,0H87c-0.2,0-0.5,0.1-0.7,0.3l-3.9,3.9c-0.2,0.2-0.3,0.4-0.3,0.7v5.5
			c0,0.2,0.1,0.5,0.3,0.7l3.9,3.9c0.2,0.2,0.4,0.3,0.7,0.3h5.5c0.1,0,0.2,0,0.3,0c-0.1,0-0.3-0.1-0.4-0.2L88.5,35.5z"/>
		<g>
			<circle class="st12" cx="89.7" cy="32.1" r="3.1"/>
		</g>
		<path class="st13" d="M89,32.1c0-1.3,0.8-2.4,1.9-2.9c-0.4-0.2-0.8-0.2-1.2-0.2c-1.7,0-3.1,1.4-3.1,3.1c0,1.7,1.4,3.1,3.1,3.1
			c0.4,0,0.8-0.1,1.2-0.2C89.8,34.5,89,33.4,89,32.1z"/>
	</g>
</g>
</svg>
