<?xml version="1.0" encoding="utf-8"?>
<!-- Generator: Adobe Illustrator 21.1.0, SVG Export Plug-In . SVG Version: 6.00 Build 0)  -->
<svg version="1.1" id="svg2" xmlns="http://www.w3.org/2000/svg" xmlns:xlink="http://www.w3.org/1999/xlink" x="0px" y="0px"
	 width="59px" height="71px" viewBox="0 0 59 71" style="enable-background:new 0 0 59 71;" xml:space="preserve">
<style type="text/css">
	.st0{fill:#3D73B9;}
	.st1{fill:#1D1D1B;}
</style>
<title>Logo_Multibanco</title>
<g id="g20">
	<path id="path22" class="st0" d="M28.7,55h20.5c4.7,0,4.7-5,4.2-7.4c-0.3-1.6-3.1-1.6-3.4,0v1.9c0,0.9-0.7,1.6-1.6,1.6H9.2
		c-0.9,0-1.6-0.7-1.6-1.6v-1.9c-0.3-1.6-3.1-1.6-3.4,0C3.8,50.1,3.8,55,8.5,55H28.7z M14.3,7.4h31.6c2.2,0,4,1.9,4,4.3v2
		c0,2.9-3.9,2.9-3.9,0v-1.1c0-0.7-0.6-1.3-1.3-1.3H13c-0.7,0-1.3,0.6-1.3,1.3v1.1c0,2.9-3.7,2.8-3.7,0.1v-2.1c0-2.3,1.8-4.3,4-4.3
		H14.3z"/>
</g>
<g id="g24">
	<path id="path26" class="st1" d="M49.1,30.9c2.2,1,3.7,3.2,3.7,5.6c0,3.4-3,6.2-6.7,6.2H35.8c-0.9,0-1.7-0.7-1.7-1.6V21.5
		c0-0.9,0.8-1.7,1.7-1.7h8.6c3.6,0,6.5,2.9,6.6,6.5C50.9,28,50.2,29.7,49.1,30.9 M41.4,29.3h3.3v0c1.5-0.2,2.6-1.5,2.6-3.1l0,0
		c0-1.7-1.4-3.1-3.1-3.1h-6.6v16.2h8.3c1.8,0.1,3.3-1.3,3.3-3.1c0.1-1.8-1.3-3.3-3.1-3.3c-0.1,0-0.1,0-0.2,0h-1.3l0,0h-3.3
		c-1,0-1.8-0.8-1.8-1.8C39.6,30.1,40.4,29.3,41.4,29.3C41.4,29.3,41.4,29.3,41.4,29.3"/>
</g>
<g id="g28">
	<path id="path30" class="st1" d="M15.6,61.1c0-0.3,0.2-0.6,0.6-0.6c0.3,0,0.6,0.2,0.6,0.6v3l0,0c0,1.4-1.1,2.5-2.5,2.5l0,0
		c-1.4,0-2.5-1.1-2.5-2.5l0,0v-3c0-0.3,0.2-0.6,0.5-0.6c0.3,0,0.6,0.2,0.6,0.5c0,0,0,0.1,0,0.1v3l0,0c0,0.8,0.6,1.4,1.4,1.4l0,0
		c0.8,0,1.4-0.6,1.4-1.4l0,0L15.6,61.1z"/>
</g>
<g id="g32">
	<path id="path34" class="st1" d="M20.8,65.4c0.3,0,0.6,0.2,0.6,0.6c0,0.3-0.2,0.6-0.6,0.6c0,0,0,0,0,0h-1.5c-1.1,0-2.1-0.9-2.1-2.1
		l0,0v-3.4c0-0.3,0.2-0.5,0.5-0.5c0.3,0,0.5,0.2,0.5,0.5v3.4l0,0c0,0.5,0.4,1,1,1L20.8,65.4L20.8,65.4z"/>
</g>
<g id="g36">
	<path id="path38" class="st1" d="M32.4,40.8c0.2,1.1-0.6,2.2-1.7,2.3c-1.1,0.2-2.2-0.6-2.3-1.7c0-0.1,0-0.1,0-0.2l-1.7-15.6
		l-6,15.2l0,0l0,0v0v0l0,0v0v0v0l0,0v0l0,0c-0.1,0.2-0.3,0.4-0.5,0.6l0,0l0,0c-0.1,0.1-0.2,0.2-0.4,0.3l0,0l0,0l0,0l0,0l0,0h0h0h0h0
		h0h0h0l0,0h0h0l0,0c-0.2,0.1-0.4,0.1-0.6,0.1h-0.1c-0.2,0-0.5-0.1-0.7-0.1h0l0,0h0h0h0h0h0h0l0,0l0,0l0,0h0
		c-0.1-0.1-0.2-0.1-0.3-0.2l0,0l-0.1-0.1l0,0l-0.1,0l-0.1,0l0,0l-0.1-0.1l0,0c-0.1-0.1-0.2-0.2-0.2-0.3v0l0,0l0,0l0,0l0,0v0v0v0v0v0
		l0,0v0l-6.1-15.2L9.1,41.2c-0.1,1.1-1.1,2-2.3,1.8s-2-1.1-1.8-2.3l2-18.3l0,0l0,0c0-0.4,0.2-0.9,0.4-1.2c0.5-1,1.5-1.6,2.6-1.8l0,0
		h0.1c0.2,0,0.3,0,0.5,0l0,0c0.2,0,0.4,0,0.6,0.1c1.1,0.3,2,1,2.4,2.1l5.1,12.9l5.1-13c0.5-1.3,1.7-2.1,3-2.2l0,0c0.2,0,0.3,0,0.5,0
		h0.1l0,0c1.1,0.1,2,0.8,2.6,1.8c0.1,0.2,0.2,0.4,0.3,0.6c0.1,0.2,0.1,0.4,0.1,0.6l0,0l0,0L32.4,40.8z"/>
</g>
<g id="g40">
	<path id="path42" class="st1" d="M11.5,65.9c0.1,0.3-0.1,0.6-0.4,0.6c-0.3,0.1-0.6-0.1-0.6-0.4c0,0,0,0,0-0.1l-0.5-4L8.2,66
		c-0.1,0.3-0.4,0.4-0.7,0.3c-0.1-0.1-0.2-0.2-0.3-0.3l0,0l-1.7-3.9l-0.5,4c0,0.3-0.3,0.5-0.6,0.5C4.2,66.5,4,66.3,4,66
		c0,0,0,0,0-0.1l0.6-4.6c0-0.3,0.2-0.6,0.5-0.7c0,0,0.1,0,0.1,0h0c0.1,0,0.1,0,0.2,0l0,0c0.3,0,0.6,0.1,0.8,0.2c0,0,0.1,0.1,0.1,0.1
		c0,0,0,0.1,0.1,0.1c0,0,0,0,0,0.1l1.4,3.3L9.2,61c0.1-0.3,0.4-0.5,0.6-0.5c0.1,0,0.1,0,0.2,0h0.2c0.3,0,0.5,0.2,0.7,0.4l0,0
		c0,0.1,0.1,0.1,0.1,0.2c0,0,0,0.1,0,0.1c0,0,0,0,0,0.1l0,0L11.5,65.9z"/>
</g>
<g id="g44">
	<path id="path46" class="st1" d="M23.2,66c0,0.3-0.2,0.6-0.6,0.6c-0.3,0-0.6-0.2-0.6-0.6l0,0v-4.4h-1.6c-0.3,0-0.6-0.2-0.6-0.6
		c0-0.3,0.2-0.6,0.6-0.6h4.2c0.3,0,0.6,0.2,0.6,0.6c0,0.3-0.2,0.6-0.6,0.6h-1.6V66z"/>
</g>
<g id="g48">
	<path id="path50" class="st1" d="M26.6,66c0,0.3-0.2,0.6-0.6,0.6c-0.3,0-0.6-0.2-0.6-0.6l0,0v-4.9c0-0.3,0.2-0.6,0.6-0.6
		c0.3,0,0.6,0.2,0.6,0.6V66z"/>
</g>
<g id="g52">
	<path id="path54" class="st1" d="M37.9,65.9c0,0.3-0.2,0.6-0.5,0.6c-0.3,0-0.5-0.2-0.6-0.5l-0.2-1.6h-1.9c-0.3,0-0.6-0.2-0.6-0.5
		c0-0.3,0.2-0.6,0.5-0.6c0,0,0.1,0,0.1,0h1.8L36.5,63l0,0c0,0,0,0,0,0c0-0.1,0-0.2-0.1-0.3c0-0.1-0.1-0.2-0.1-0.3
		c-0.2-0.4-0.6-0.7-1.1-0.7l0,0c-0.1,0-0.2,0-0.3,0c-0.1,0-0.2,0.1-0.2,0.1c-0.4,0.3-0.7,0.7-0.8,1.2L33.5,66c0,0.3-0.3,0.5-0.6,0.5
		s-0.5-0.3-0.5-0.6l0,0l0.3-3.1c0.1-0.9,0.6-1.7,1.4-2.1c0.2-0.1,0.3-0.1,0.5-0.2c0.2,0,0.4-0.1,0.5-0.1l0,0c0.9,0,1.7,0.5,2.1,1.4
		c0.1,0.2,0.1,0.3,0.2,0.5c0,0.1,0.1,0.3,0.1,0.5c0,0,0,0,0,0l0,0L37.9,65.9z"/>
</g>
<g id="g56">
	<path id="path58" class="st1" d="M39.6,66c0,0.3-0.2,0.6-0.5,0.6c-0.3,0-0.6-0.2-0.6-0.5c0,0,0-0.1,0-0.1v-4.5l0,0c0,0,0-0.1,0-0.1
		c0-0.1,0-0.1,0-0.2l0,0l0-0.1l0,0c0.1-0.2,0.2-0.3,0.4-0.4l0.1,0h0.1l0,0h0.1h0c0.2,0,0.4,0.1,0.6,0.3l2.9,3.7v-3.7
		c0-0.3,0.2-0.6,0.6-0.6c0.3,0,0.6,0.2,0.6,0.6v4.5c0,0.2-0.1,0.5-0.3,0.6c0,0-0.1,0.1-0.1,0.1c0,0,0,0-0.1,0l0,0l0,0l0,0
		c-0.2,0.1-0.4,0.1-0.6,0l-0.1,0c0,0-0.1-0.1-0.1-0.1c0,0,0,0-0.1-0.1l0,0l0,0l0,0l-2.9-3.8V66z"/>
</g>
<g id="g60">
	<path id="path62" class="st1" d="M48.2,65.4c0.3,0,0.6,0.2,0.6,0.6s-0.2,0.6-0.6,0.6c0,0,0,0,0,0h-1.6c-1.2,0-2.2-1-2.2-2.2l0,0
		l0,0v-1.7l0,0c0-1.2,1-2.2,2.2-2.2h1.6c0.3,0,0.6,0.2,0.6,0.6c0,0.3-0.2,0.6-0.6,0.6h-1.6c-0.3,0-0.6,0.1-0.8,0.3
		c-0.2,0.2-0.3,0.5-0.3,0.8l0,0v1.7l0,0c0,0.6,0.5,1.1,1.1,1.1L48.2,65.4L48.2,65.4z"/>
</g>
<g id="g64">
	<path id="path66" class="st1" d="M51.4,61.6L51.4,61.6c-0.4,0-0.8,0.1-1,0.4c-0.3,0.3-0.4,0.6-0.4,1l0,0v1l0,0c0,0.4,0.2,0.7,0.4,1
		c0.3,0.3,0.7,0.4,1,0.4l0,0c0.4,0,0.8-0.1,1-0.4c0.3-0.3,0.4-0.6,0.4-1l0,0v-1l0,0c0-0.4-0.2-0.7-0.4-1
		C52.2,61.7,51.8,61.6,51.4,61.6 M51.4,60.5L51.4,60.5c0.7,0,1.3,0.3,1.8,0.7c0.5,0.5,0.8,1.1,0.8,1.8l0,0v1l0,0
		c0,0.7-0.3,1.3-0.8,1.8c-0.5,0.5-1.1,0.7-1.8,0.7l0,0c-0.7,0-1.3-0.3-1.8-0.7c-0.5-0.5-0.8-1.1-0.8-1.8l0,0v-1l0,0
		c0-0.7,0.3-1.3,0.8-1.8C50.1,60.8,50.7,60.5,51.4,60.5L51.4,60.5z"/>
</g>
<g id="g68">
	<path id="path70" class="st1" d="M28.2,61.6v3.8h2.1c0.4,0,0.7-0.3,0.7-0.7c0,0,0,0,0,0l0,0c0-0.2-0.1-0.3-0.2-0.5l0,0
		c-0.1-0.1-0.3-0.2-0.5-0.2h-0.7c-0.3,0-0.6-0.2-0.6-0.6c0-0.3,0.2-0.6,0.6-0.6h0.3c0.2,0,0.3-0.1,0.4-0.2l0,0
		c0.1-0.1,0.2-0.3,0.2-0.5l0,0c0-0.4-0.3-0.6-0.6-0.6L28.2,61.6L28.2,61.6z M27.1,63.5v-2.4l0,0c0-0.1,0-0.1,0-0.2
		c0-0.1,0.1-0.1,0.1-0.2l0,0l0,0c0.1-0.1,0.2-0.1,0.4-0.2h2.2c1,0,1.8,0.8,1.8,1.8l0,0c0,0.3-0.1,0.7-0.3,0.9
		c0.1,0.1,0.2,0.2,0.3,0.2l0,0c0.3,0.3,0.5,0.8,0.5,1.2l0,0c0,1-0.8,1.8-1.8,1.8h-2.7c-0.3,0-0.6-0.2-0.6-0.6L27.1,63.5z"/>
</g>
</svg>
